<?xml version="1.0" standalone="no"?>
<!DOCTYPE svg PUBLIC "-//W3C//DTD SVG 1.1//EN" "http://www.w3.org/Graphics/SVG/1.1/DTD/svg11.dtd" >
<svg xmlns="http://www.w3.org/2000/svg">
<metadata></metadata>
<defs>
<font id="phoenica_std_demoregular" horiz-adv-x="983" >
<font-face units-per-em="2048" ascent="1485" descent="-563" />
<missing-glyph horiz-adv-x="507" />
<glyph unicode="&#xfb01;" horiz-adv-x="1101" d="M29 866v144h137v131q0 350 330 350q80 0 127 -18l-19 -130q-43 15 -90 15q-82 0 -122 -51.5t-40 -173.5v-123h594v-1010h-184v866h-410v-866h-186v866h-137zM748 1323q0 46 30.5 78.5t77.5 32.5q46 0 78.5 -32.5t32.5 -78.5q0 -47 -32.5 -79t-78.5 -32q-47 0 -77.5 31.5 t-30.5 79.5z" />
<glyph unicode="&#xfb02;" horiz-adv-x="1101" d="M29 866v144h137v100q0 187 115.5 284t310.5 97q104 0 206.5 -17.5t149.5 -31.5v-1442h-186v1327q-63 25 -154 25q-256 0 -256 -242v-100h250v-144h-250v-866h-186v866h-137z" />
<glyph horiz-adv-x="2048" />
<glyph horiz-adv-x="2048" />
<glyph unicode="&#xd;" horiz-adv-x="2048" />
<glyph unicode=" "  horiz-adv-x="507" />
<glyph unicode="&#x09;" horiz-adv-x="507" />
<glyph unicode="&#xa0;" horiz-adv-x="507" />
<glyph unicode="!" horiz-adv-x="708" d="M225 102q0 54 37.5 92.5t89.5 38.5q54 0 91.5 -38.5t37.5 -92.5q0 -53 -37.5 -90t-91.5 -37q-52 0 -89.5 37.5t-37.5 89.5zM268 895v487h170v-487l-41 -430h-92z" />
<glyph unicode="&#x22;" horiz-adv-x="841" d="M168 1485h184l-39 -486h-110zM489 1485h185l-39 -486h-111z" />
<glyph unicode="#" horiz-adv-x="1069" d="M37 356v142h192l43 344h-188v143h207l49 397h143l-51 -397h281l51 397h141l-51 -397h178v-143h-194l-45 -344h190v-142h-209l-45 -356h-139l45 356h-283l-45 -356h-139l43 356h-174zM371 498h280l43 344h-280z" />
<glyph unicode="$" d="M125 969q0 124 77 203t220 98v112h133v-104q120 -9 227 -47l-37 -144q-121 46 -243 46q-77 0 -126.5 -45t-49.5 -123q0 -40 23 -72.5t60 -54t84.5 -44t97.5 -41t97.5 -46.5t84.5 -60.5t60 -82t23 -111.5q0 -56 -15.5 -107.5t-48.5 -99.5t-94 -82t-143 -47v-117h-133v109 q-144 6 -283 65l37 154q155 -70 289 -70q87 0 139.5 50t52.5 128q0 52 -29.5 91t-76.5 64.5t-103.5 48t-113 49.5t-103.5 61t-76.5 90t-29.5 129z" />
<glyph unicode="%" horiz-adv-x="1636" d="M61 961q0 200 71 314t212 114q137 0 209 -115t72 -313q0 -92 -15.5 -169t-47.5 -140t-88 -98.5t-132 -35.5q-60 0 -108.5 23.5t-80 64t-53 97t-30.5 120.5t-9 138zM211 961q0 -139 31.5 -228.5t99.5 -89.5q38 0 65.5 30.5t42 79.5t21 98t6.5 99q0 134 -34 224t-99 90 q-67 0 -100 -87.5t-33 -215.5zM350 0l711 1382h137l-711 -1382h-137zM965 426q0 200 70.5 314t211.5 114q137 0 209 -115t72 -313q0 -92 -15.5 -169t-47.5 -140t-88 -98t-132 -35q-75 0 -130.5 35t-87.5 97.5t-47 139.5t-15 170zM1114 426q0 -65 7 -120t21.5 -100.5t41 -71 t61.5 -25.5q38 0 65.5 30.5t42 79.5t21 98t6.5 99q0 134 -34 223.5t-99 89.5q-67 0 -100 -87.5t-33 -215.5z" />
<glyph unicode="&#x26;" horiz-adv-x="1312" d="M129 358q0 108 47 188t123 120v4q-88 51 -126 123t-38 172q0 147 109 239t280 92q131 0 303 -59l-45 -147q-45 22 -114 35.5t-123 13.5q-91 0 -158.5 -50t-67.5 -133q0 -116 76 -169.5t201 -53.5h633v-141h-209v-555q-221 -62 -432 -62q-94 0 -173.5 21t-145 64.5 t-103 119.5t-37.5 178zM313 350q0 -75 45.5 -127t111 -74t142.5 -22q136 0 258 39v426h-313q-43 0 -84.5 -13.5t-78 -40.5t-59 -75.5t-22.5 -112.5z" />
<glyph unicode="'" horiz-adv-x="520" d="M168 1485h184l-39 -486h-110z" />
<glyph unicode="(" horiz-adv-x="632" d="M131 618q0 441 301 926h139q-117 -220 -189.5 -464.5t-72.5 -461.5q0 -223 72.5 -481.5t189.5 -476.5h-139q-135 217 -218 470t-83 488z" />
<glyph unicode=")" horiz-adv-x="632" d="M59 -338q118 217 191.5 471.5t73.5 476.5q0 218 -72.5 462.5t-192.5 471.5h140q138 -222 219.5 -461t81.5 -473t-85 -486t-218 -462h-138z" />
<glyph unicode="*" horiz-adv-x="999" d="M139 1128l45 160l275 -123l-29 320h143l-24 -320l262 123l49 -158l-285 -67l193 -244l-121 -90l-147 272l-152 -274l-119 92l201 244z" />
<glyph unicode="+" d="M31 639v147h387v390h147v-390h387v-147h-387v-387h-147v387h-387z" />
<glyph unicode="," horiz-adv-x="544" d="M33 -270l121 491h198l-176 -491h-143z" />
<glyph unicode="-" horiz-adv-x="655" d="M72 537v182h522v-182h-522z" />
<glyph unicode="." horiz-adv-x="544" d="M92 102q0 54 37.5 92.5t89.5 38.5q54 0 92.5 -38.5t38.5 -92.5q0 -52 -38.5 -89.5t-92.5 -37.5q-53 0 -90 37.5t-37 89.5z" />
<glyph unicode="/" horiz-adv-x="614" d="M20 -102l416 1587h158l-418 -1587h-156z" />
<glyph unicode="0" d="M86 694q0 343 103 527t303 184q199 0 302 -184t103 -527q0 -226 -43 -385t-134.5 -246.5t-227.5 -87.5t-227.5 87.5t-135 246.5t-43.5 385zM260 694q0 -563 232 -563q231 0 231 563q0 553 -231 553q-232 0 -232 -553z" />
<glyph unicode="1" horiz-adv-x="772" d="M61 1217l506 188v-1405h-184v1184l-281 -109z" />
<glyph unicode="2" horiz-adv-x="993" d="M78 0v168l260 305q176 206 253 328t77 233q0 102 -68 161.5t-174 59.5q-118 0 -264 -73l-43 147q168 76 327 76q191 0 295.5 -95.5t104.5 -260.5q0 -130 -79.5 -270.5t-219.5 -305.5l-266 -311h600v-162h-803z" />
<glyph unicode="3" horiz-adv-x="1007" d="M127 29l37 147q133 -53 246 -53q123 0 194.5 74t71.5 180q0 126 -82.5 195t-222.5 69h-95v147h78q139 0 227.5 69t88.5 192q0 89 -66 151t-168 62q-119 0 -229 -54l-39 133q161 64 303 64q177 0 279 -92.5t102 -253.5q0 -104 -57.5 -199t-167.5 -135v-6 q112 -35 172.5 -126.5t60.5 -203.5q0 -130 -61 -226t-157 -142t-212 -46q-161 0 -303 54z" />
<glyph unicode="4" horiz-adv-x="1042" d="M57 436l514 946h240v-895h158v-149h-158v-338h-178v338h-551zM258 487h375v160q0 467 6 553l-4 2z" />
<glyph unicode="5" horiz-adv-x="993" d="M150 23v167q115 -59 247 -59q135 0 214 84t79 217q0 136 -76 209.5t-204 73.5q-138 0 -244 -45v712h661v-147h-508v-381q60 14 140 14q184 0 302 -115t118 -317t-128.5 -331.5t-324.5 -129.5q-154 0 -276 48z" />
<glyph unicode="6" horiz-adv-x="1032" d="M125 686q0 114 17 216t55.5 195t96 160.5t144.5 107.5t195 40q107 0 192 -33l-32 -133q-80 25 -162 25q-140 0 -225.5 -129.5t-96.5 -333.5q133 98 275 98q160 0 248 -120t88 -314q0 -238 -108.5 -364t-279.5 -126q-407 0 -407 711zM305 651q5 -271 56.5 -402.5 t173.5 -131.5q91 0 150.5 80t59.5 237q0 330 -202 330q-121 0 -238 -113z" />
<glyph unicode="7" horiz-adv-x="933" d="M84 1231v151h788v-118l-473 -1264h-184l322 825q112 285 174 412q-150 -6 -367 -6h-260z" />
<glyph unicode="8" horiz-adv-x="1017" d="M123 350q0 235 229 389q-44 31 -75.5 60.5t-61 70t-44.5 91t-15 110.5q0 146 96.5 240t257.5 94q159 0 256.5 -93.5t97.5 -240.5q0 -111 -52.5 -193t-141.5 -153q64 -46 107.5 -92t76.5 -120.5t33 -162.5q0 -161 -103 -268t-272 -107q-171 0 -280 101t-109 274zM285 354 q0 -93 63 -161t168 -68q94 0 151.5 71t57.5 154q0 48 -19.5 91t-57.5 81.5t-76.5 67.5t-94.5 63q-84 -57 -138 -135.5t-54 -163.5zM313 1067q0 -41 16.5 -77.5t52 -70t68.5 -57t89 -59.5q80 62 124 135t44 131q0 84 -54.5 138.5t-144.5 54.5q-89 0 -142 -55t-53 -140z" />
<glyph unicode="9" horiz-adv-x="1032" d="M109 915q0 123 32.5 218.5t89 154t127 88t150.5 29.5q108 0 187.5 -48.5t127.5 -138.5t71.5 -210.5t23.5 -272.5q0 -385 -117.5 -572.5t-384.5 -187.5q-114 0 -199 33l33 144q66 -27 166 -27q147 0 228 109t91 352q-65 -51 -122 -77t-140 -26q-167 0 -265.5 120.5 t-98.5 311.5zM283 948q0 -155 57.5 -240t171.5 -85q125 0 223 118q-2 128 -13.5 219t-37.5 161t-71.5 104.5t-110.5 34.5q-39 0 -76 -18.5t-70 -54t-53 -98t-20 -141.5z" />
<glyph unicode=":" horiz-adv-x="544" d="M139 102q0 54 37.5 92.5t89.5 38.5q54 0 92.5 -38.5t38.5 -92.5q0 -52 -38.5 -89.5t-92.5 -37.5q-52 0 -89.5 37.5t-37.5 89.5zM139 883q0 54 37 91.5t90 37.5q54 0 92.5 -37.5t38.5 -91.5q0 -52 -38.5 -89.5t-92.5 -37.5q-52 0 -89.5 37t-37.5 90z" />
<glyph unicode=";" horiz-adv-x="544" d="M-4 -266l121 520h184l-176 -520h-129zM102 883q0 54 37 91.5t90 37.5q54 0 91.5 -37.5t37.5 -91.5q0 -53 -37.5 -90t-91.5 -37q-53 0 -90 37t-37 90z" />
<glyph unicode="&#x3c;" d="M31 651v127l919 414v-150l-723 -329l723 -322v-147z" />
<glyph unicode="=" d="M31 498v147h921v-147h-921zM31 784v148h921v-148h-921z" />
<glyph unicode="&#x3e;" d="M31 242v149l723 322l-723 329v148l919 -416v-127z" />
<glyph unicode="?" horiz-adv-x="911" d="M109 1325q126 74 307 74q160 0 270.5 -93t110.5 -243q0 -64 -17.5 -121t-45.5 -100t-61.5 -82.5t-67 -76.5t-61.5 -74t-45.5 -82.5t-17.5 -94.5v-20h-137v32q0 73 28 140t68 118.5t80 101.5t68 110.5t28 123.5q0 99 -73.5 151t-173.5 52q-104 0 -207 -47zM291 102 q0 54 37.5 92.5t89.5 38.5q54 0 91.5 -38.5t37.5 -92.5q0 -53 -37.5 -90t-91.5 -37q-52 0 -89.5 37.5t-37.5 89.5z" />
<glyph unicode="@" horiz-adv-x="1464" d="M98 322q0 155 54 288.5t146 225.5t215.5 144t260.5 52q260 0 391 -119.5t131 -330.5v-469q-115 -74 -211 -106t-206 -32q-91 0 -167 33t-125.5 103t-49.5 165q0 168 119.5 253t308.5 85h186q-12 275 -363 275q-72 0 -146 -20.5t-145.5 -66t-127 -110.5t-89.5 -163 t-34 -214q0 -278 159.5 -430.5t425.5 -152.5q235 0 461 131v-129q-198 -133 -481 -133q-154 0 -285 49.5t-226 140.5t-148.5 227.5t-53.5 303.5zM678 283q0 -81 58 -132t157 -51q88 0 145.5 19t116.5 67v308h-184q-140 0 -216.5 -53t-76.5 -158z" />
<glyph unicode="A" horiz-adv-x="1306" d="M57 0l523 1382h143l526 -1382h-182l-133 365h-561l-135 -365h-181zM420 506h467l-113 305q-82 224 -119 377h-4q-31 -127 -121 -377z" />
<glyph unicode="B" horiz-adv-x="1095" d="M156 0v1382h399q208 0 314 -96.5t106 -265.5q0 -105 -47.5 -182t-134.5 -119v-4q104 -33 162.5 -123t58.5 -221q0 -166 -104.5 -268.5t-301.5 -102.5h-452zM340 162h225q133 0 201 55t68 178q0 102 -72.5 170t-206.5 68h-215v-471zM340 793h166q144 0 218.5 51.5 t74.5 171.5q0 99 -63.5 155t-174.5 56h-221v-434z" />
<glyph unicode="C" horiz-adv-x="1142" d="M76 696q0 145 46.5 274t130 225.5t209 153t275.5 56.5q169 0 326 -49l-47 -164q-122 45 -273 45q-144 0 -256 -75t-170.5 -198t-58.5 -270q0 -112 30.5 -209.5t90 -175t157 -122t222.5 -44.5q164 0 282 47l41 -161q-144 -54 -327 -54q-308 0 -493 194.5t-185 526.5z" />
<glyph unicode="D" horiz-adv-x="1331" d="M158 0v1382h493q125 0 235.5 -48t192.5 -134t130 -214.5t48 -280.5q0 -336 -172.5 -520.5t-466.5 -184.5h-460zM342 162h270q217 0 337 141t120 393q0 243 -125 384t-315 141h-287v-1059z" />
<glyph unicode="E" horiz-adv-x="970" d="M158 0v1382h739v-161h-555v-430h508v-160h-508v-469h555v-162h-739z" />
<glyph unicode="F" horiz-adv-x="948" d="M158 0v1382h688v-161h-504v-430h465v-160h-465v-631h-184z" />
<glyph unicode="G" horiz-adv-x="1267" d="M76 698q0 204 85 365.5t239.5 252.5t353.5 91q206 0 379 -74l-48 -157q-59 28 -145 47.5t-168 19.5q-152 0 -266.5 -72.5t-174 -197t-59.5 -283.5q0 -148 57 -273t168.5 -202.5t256.5 -77.5q51 0 115 9.5t104 25.5v408h-258v149h436v-684q-199 -70 -399 -70 q-143 0 -267.5 52t-215 145t-142 229t-51.5 297z" />
<glyph unicode="H" horiz-adv-x="1415" d="M158 0v1382h184v-585h731v585h184v-1382h-184v631h-731v-631h-184z" />
<glyph unicode="I" horiz-adv-x="499" d="M158 0v1382h184v-1382h-184z" />
<glyph unicode="J" horiz-adv-x="684" d="M14 0v178q5 -1 22 -6t27 -7.5t27.5 -6t37 -5t42.5 -1.5q99 0 143.5 69.5t44.5 235.5v925h185v-970q0 -76 -8.5 -137t-32 -119t-62 -96.5t-101 -61.5t-146.5 -23q-85 0 -179 25z" />
<glyph unicode="K" horiz-adv-x="1136" d="M158 0v1382h184v-604l512 604h231l-583 -653l624 -729h-233l-551 674v-674h-184z" />
<glyph unicode="L" horiz-adv-x="946" d="M158 0v1382h184v-1220h559v-162h-743z" />
<glyph unicode="M" horiz-adv-x="1667" d="M115 0l78 1382h247l211 -565q133 -355 185 -573h8q52 217 182 573l205 565h248l77 -1382h-174l-47 639q-24 348 -24 491l-6 3l-385 -1133h-164l-394 1133l-6 -3q-1 -19 -4 -113.5t-7.5 -190.5t-10.5 -187l-43 -639h-176z" />
<glyph unicode="N" horiz-adv-x="1423" d="M158 0v1382h223l711 -1118h4q-15 296 -15 598v520h187v-1382h-205l-731 1157h-4q14 -291 14 -637v-520h-184z" />
<glyph unicode="O" horiz-adv-x="1394" d="M76 692q0 321 172.5 517t447.5 196t449 -196t174 -519q0 -162 -46.5 -297t-129 -226t-197.5 -141.5t-250 -50.5q-134 0 -248 50t-196.5 141.5t-129 226.5t-46.5 299zM272 690q0 -84 15 -162t48 -150t81.5 -125t121 -84.5t160.5 -31.5t160 32t120 85t80.5 125t47 149.5 t14.5 161.5q0 82 -14.5 159.5t-47 150t-80.5 126t-120 85.5t-160 32q-87 0 -159.5 -31.5t-121 -84.5t-82 -125t-48.5 -150t-15 -162z" />
<glyph unicode="P" horiz-adv-x="1069" d="M158 0v1382h377q95 0 173 -20.5t142 -64t99.5 -120t35.5 -180.5q0 -201 -124 -306t-324 -105h-195v-586h-184zM342 743h164q148 0 222.5 66t74.5 186q0 122 -71.5 174t-227.5 52h-162v-478z" />
<glyph unicode="Q" horiz-adv-x="1382" d="M74 692q0 321 172.5 517t449.5 196q135 0 249.5 -51t196.5 -142.5t128.5 -226t46.5 -295.5q0 -244 -100.5 -417.5t-272.5 -247.5l287 -285h-225l-232 244q-63 -9 -88 -9q-132 1 -244.5 52t-194 142t-127.5 225.5t-46 297.5zM272 690q0 -84 14.5 -162t47.5 -150t81.5 -125 t120.5 -84.5t160 -31.5t160 31.5t120.5 85t81.5 125.5t47.5 150t14.5 161q0 82 -14.5 159.5t-47.5 149.5t-81.5 126t-120.5 86t-160 32q-87 0 -159 -31.5t-120.5 -84.5t-81.5 -125t-48 -150t-15 -162z" />
<glyph unicode="R" horiz-adv-x="1161" d="M158 0v1382h413q184 0 300 -95.5t116 -276.5q0 -127 -72 -220t-190 -116v-4q54 -21 84.5 -53t58.5 -95l240 -522h-205l-182 424q-48 112 -100 151t-158 39h-121v-614h-184zM342 776h141q53 0 96 5t86.5 20.5t73 41t48 68t18.5 99.5q0 100 -68.5 155.5t-191.5 55.5h-203 v-445z" />
<glyph unicode="S" horiz-adv-x="931" d="M86 66l41 170q83 -50 150 -73.5t153 -23.5q109 0 169 53t60 148q0 61 -30 109.5t-78.5 83.5t-106.5 68.5t-116 73t-106.5 87t-78.5 121.5t-30 166q0 156 106.5 256t278.5 100q153 0 286 -51l-51 -160q-7 2 -33 11t-35.5 12t-31.5 9t-36 8.5t-34 4.5t-39 2 q-103 0 -167 -51t-64 -137q0 -50 18.5 -91.5t50 -72.5t72.5 -59t86 -54t90.5 -54t86.5 -63.5t72.5 -77t50 -100t18.5 -127.5q0 -72 -21 -136.5t-65.5 -120.5t-125.5 -89t-190 -33q-197 0 -350 91z" />
<glyph unicode="T" horiz-adv-x="970" d="M-2 1221v161h975v-161h-395v-1221h-185v1221h-395z" />
<glyph unicode="U" horiz-adv-x="1314" d="M156 563v819h184v-825q0 -209 85.5 -314.5t238.5 -105.5q311 0 311 428v817h184v-823q0 -100 -16 -185.5t-53.5 -160t-93.5 -126.5t-140 -82t-190 -30q-109 0 -199.5 34t-161 103t-110 184t-39.5 267z" />
<glyph unicode="V" horiz-adv-x="1142" d="M6 1382h184l183 -528q121 -350 202 -661h9q64 266 204 665l183 524h180l-483 -1382h-181z" />
<glyph unicode="W" horiz-adv-x="1753" d="M35 1382h194l156 -626q51 -207 73.5 -311t33.5 -197h6q8 48 22 107.5t24 96.5t39.5 144.5t43.5 159.5l170 626h176l170 -626q101 -379 127 -508h8q18 136 108 508l156 626h195l-363 -1382h-188l-182 657q-69 253 -117 494h-8q-58 -276 -119 -494l-185 -657h-184z" />
<glyph unicode="X" horiz-adv-x="1277" d="M57 0l469 721l-428 661h211l332 -522l332 522h209l-430 -659l471 -723h-213l-375 582l-369 -582h-209z" />
<glyph unicode="Y" horiz-adv-x="1107" d="M29 1382h196l344 -694l340 694h195l-442 -862v-520h-185v520z" />
<glyph unicode="Z" horiz-adv-x="1126" d="M61 0v145l756 1076h-708v161h927v-149l-747 -1071h770v-162h-998z" />
<glyph unicode="[" horiz-adv-x="632" d="M195 -340v1884h356v-112h-191v-1661h191v-111h-356z" />
<glyph unicode="\" horiz-adv-x="614" d="M20 1485h156l418 -1772h-156z" />
<glyph unicode="]" horiz-adv-x="632" d="M82 -229h190v1661h-190v112h354v-1884h-354v111z" />
<glyph unicode="^" horiz-adv-x="972" d="M74 633l356 749h113l358 -749h-162l-252 532l-254 -532h-159z" />
<glyph unicode="_" horiz-adv-x="921" d="M0 -147h922v-125h-922v125z" />
<glyph unicode="`" horiz-adv-x="495" d="M43 1442h201l157 -279h-131z" />
<glyph unicode="a" horiz-adv-x="1019" d="M74 307q0 77 33 137.5t88 97t121.5 55.5t138.5 19q123 0 245 -45q0 76 -10.5 130.5t-38 100t-79 68.5t-128.5 23q-101 0 -229 -47l-43 135q161 53 295 53q209 0 312.5 -112.5t103.5 -311.5v-325q0 -128 12 -238q-222 -72 -422 -72q-193 0 -296 87t-103 245zM242 295 q0 -78 58 -128t173 -50q142 0 234 37q-7 54 -7 139v133q-104 49 -223 49q-114 0 -174.5 -45t-60.5 -135z" />
<glyph unicode="b" horiz-adv-x="1134" d="M135 55q10 163 10 297v1112h185v-475l4 -4q134 49 246 49q219 0 347 -142t128 -380q0 -109 -33 -205t-95.5 -170.5t-162 -118t-223.5 -43.5q-253 0 -406 80zM322 160q68 -43 227 -43q138 0 224.5 108.5t86.5 282.5q0 190 -84.5 287.5t-230.5 97.5q-113 0 -215 -59v-476 q0 -80 -8 -198z" />
<glyph unicode="c" horiz-adv-x="944" d="M80 508q0 111 34 207.5t96.5 167t155 111t203.5 40.5q138 0 260 -43l-45 -143q-90 35 -192 35q-146 0 -232 -108t-86 -265q0 -162 86 -272.5t228 -110.5q110 0 235 59l49 -137q-136 -74 -307 -74q-211 0 -348 148t-137 385z" />
<glyph unicode="d" horiz-adv-x="1136" d="M80 516q0 148 55.5 264t166 185t261.5 69q116 0 242 -49l4 4v475h184v-1157q0 -129 11 -250q-149 -82 -404 -82q-247 0 -383.5 146.5t-136.5 394.5zM276 508q0 -178 85 -284.5t229 -106.5q149 0 227 43q-8 76 -8 207v467q-96 59 -225 59q-147 0 -227.5 -103.5 t-80.5 -281.5z" />
<glyph unicode="e" horiz-adv-x="1034" d="M80 516q0 117 36.5 216t98.5 164.5t143 101.5t170 36q133 0 228.5 -63.5t140.5 -167t45 -234.5q0 -47 -6 -84h-666q2 -163 101.5 -265.5t267.5 -102.5q126 0 223 43l35 -127q-123 -58 -287 -58q-232 0 -381 145.5t-149 395.5zM270 604h508q0 138 -66 219.5t-173 81.5 q-61 0 -111.5 -27.5t-82 -72t-50.5 -96t-25 -105.5z" />
<glyph unicode="f" horiz-adv-x="612" d="M29 866v144h137v131q0 350 330 350q80 0 127 -18l-19 -130q-43 15 -90 15q-83 0 -123.5 -52t-40.5 -176v-120h252v-144h-252v-866h-184v866h-137z" />
<glyph unicode="g" horiz-adv-x="1122" d="M80 502q0 233 140 382.5t374 149.5q222 0 393 -84q-10 -177 -10 -329v-619q0 -229 -133.5 -361.5t-378.5 -132.5q-170 0 -328 62l31 147q140 -55 303 -55q44 0 88 10.5t86.5 34.5t75 58.5t52.5 86.5t20 115v47q-102 -39 -228 -39q-226 0 -355.5 146.5t-129.5 380.5z M272 506q0 -173 82 -281t234 -108q138 0 205 45v686q-83 45 -205 45q-147 0 -231.5 -105.5t-84.5 -281.5z" />
<glyph unicode="h" horiz-adv-x="1159" d="M152 0v1464h184v-467q99 37 235 37q74 0 138 -14t120.5 -45.5t97 -79.5t64 -119.5t23.5 -161.5v-614h-185v625q0 66 -15 114.5t-39.5 77.5t-61.5 46.5t-75 23.5t-87 6q-123 0 -215 -45v-848h-184z" />
<glyph unicode="i" horiz-adv-x="489" d="M135 1329q0 45 32 78t77 33q46 0 78 -33t32 -78q0 -47 -31.5 -78.5t-78.5 -31.5q-46 0 -77.5 31.5t-31.5 78.5zM150 0v1010h186v-1010h-186z" />
<glyph unicode="j" horiz-adv-x="489" d="M-39 -344h37q87 0 119.5 60.5t32.5 172.5v1121h186v-1094q0 -192 -80 -302t-252 -110h-27zM135 1329q0 45 32 78t77 33q46 0 78 -33t32 -78q0 -47 -31.5 -78.5t-78.5 -31.5q-46 0 -77.5 31.5t-31.5 78.5z" />
<glyph unicode="k" horiz-adv-x="948" d="M152 0v1464h184v-854h4l348 400h232l-404 -455l449 -555h-234l-391 489h-4v-489h-184z" />
<glyph unicode="l" horiz-adv-x="491" d="M154 0v1464h184v-1464h-184z" />
<glyph unicode="m" horiz-adv-x="1763" d="M133 952q184 82 389 82q197 0 305 -78q173 78 344 78q96 0 174.5 -23t141.5 -71t98 -131t35 -195v-614h-186v627q0 66 -15.5 114.5t-40 76.5t-62 45t-74.5 22.5t-85 5.5q-130 0 -221 -60q41 -80 41 -206v-625h-186v627q0 82 -19.5 136.5t-58 81t-81.5 36.5t-104 10 q-110 0 -198 -45v-846h-185v621q0 216 -12 331z" />
<glyph unicode="n" horiz-adv-x="1153" d="M133 952q184 82 412 82q100 0 181.5 -22.5t146 -71t100 -131.5t35.5 -195v-614h-185v623q0 66 -15 114.5t-39.5 77.5t-61.5 46.5t-75 23.5t-87 6q-130 0 -215 -43v-848h-185v621q0 204 -12 331z" />
<glyph unicode="o" horiz-adv-x="1138" d="M80 510q0 227 135 375.5t354 148.5t354.5 -149t135.5 -375q0 -235 -137 -385t-353 -150q-217 0 -353 149.5t-136 385.5zM274 510q0 -109 33.5 -197t101.5 -142t160 -54q136 0 215.5 113t79.5 280q0 165 -79 274t-216 109q-138 0 -216.5 -109t-78.5 -274z" />
<glyph unicode="p" horiz-adv-x="1136" d="M135 950q185 84 383 84q258 0 398.5 -141t140.5 -383q0 -148 -54 -268t-163 -193.5t-256 -73.5t-254 58v-525h-187v1113q0 181 -8 329zM322 840q8 -104 8 -236v-411q93 -76 239 -76q125 0 208 107.5t83 287.5q0 188 -90 284.5t-246 96.5q-105 0 -202 -53z" />
<glyph unicode="q" horiz-adv-x="1118" d="M80 504q0 113 33.5 209.5t97 168t161 112t218.5 40.5q213 0 395 -84q-8 -145 -8 -329v-1113h-184v515q-98 -48 -246 -48q-216 0 -341.5 148t-125.5 381zM272 508q0 -169 80 -280t213 -111q140 0 228 57v674q-83 45 -215 45q-146 0 -226 -103t-80 -282z" />
<glyph unicode="r" horiz-adv-x="712" d="M135 913q180 121 402 121q67 0 139 -14l-8 -150q-57 11 -99 11q-160 0 -247 -78q8 -136 8 -225v-578h-187v621q0 175 -8 292z" />
<glyph unicode="s" horiz-adv-x="774" d="M82 51l41 135q141 -75 242 -75q63 0 105 40t42 111q0 48 -23 84t-59.5 59t-81 44t-89 46.5t-81 57.5t-59.5 85.5t-23 123.5q0 118 86 195t228 77q135 0 229 -63l-43 -127q-90 55 -182 55q-58 0 -98 -38t-40 -87q0 -44 23 -77.5t59.5 -55.5t81 -43t89 -48t81 -62t59.5 -93 t23 -133q0 -126 -85 -206.5t-236 -80.5q-167 0 -289 76z" />
<glyph unicode="t" horiz-adv-x="661" d="M37 866v144h137v233l184 33v-266h250v-144h-250v-555q0 -164 166 -164h84v-147h-131q-67 0 -120.5 15.5t-95.5 49.5t-64.5 92.5t-22.5 139.5v569h-137z" />
<glyph unicode="u" horiz-adv-x="1150" d="M143 401v609h187v-613q0 -83 21.5 -140.5t62 -86.5t87 -41t107.5 -12q134 0 219 43q-6 85 -6 237v613h185v-641q0 -184 8 -312q-181 -82 -414 -82q-98 0 -178.5 23.5t-144 73t-99 133.5t-35.5 196z" />
<glyph unicode="v" horiz-adv-x="970" d="M29 1010h190l125 -340q86 -238 141 -434h7q34 130 141 434l121 340h192l-395 -1010h-133z" />
<glyph unicode="w" horiz-adv-x="1484" d="M37 1010h188l103 -365q64 -230 96 -424h8l217 789h180l213 -789h9q34 217 96 424l108 365h193l-322 -1010h-159l-140 461q-41 138 -88 338h-8q-5 -23 -17.5 -77t-20.5 -89t-21 -84t-25 -88l-147 -461h-162z" />
<glyph unicode="x" horiz-adv-x="903" d="M25 0l325 545l-282 465h206l78 -144q19 -34 105 -204h4q35 82 102 206l76 142h201l-281 -475l320 -535h-205l-107 188q-91 159 -116 224h-5q-74 -150 -114 -226l-103 -186h-204z" />
<glyph unicode="y" horiz-adv-x="948" d="M20 1010h195l115 -322q72 -200 145 -461h6q56 211 142 459l114 324h191l-494 -1309q-37 -98 -98 -145.5t-164 -47.5h-51l-15 156h58q92 0 121 80l112 289z" />
<glyph unicode="z" horiz-adv-x="849" d="M41 0v131l358 487q149 204 195 244l-2 4h-522v144h706v-142l-360 -520q-83 -121 -158 -196l2 -9h551v-143h-770z" />
<glyph unicode="{" horiz-adv-x="632" d="M74 582v145q64 6 105.5 56.5t41.5 138.5v391q0 113 63.5 172t141.5 59h152v-112h-66q-61 0 -94 -40.5t-33 -115.5v-385q0 -92 -43 -153t-111 -81v-4q67 -14 110.5 -79t43.5 -162v-482q0 -157 129 -157h64v-113h-152q-83 0 -144 65.5t-61 178.5v473q0 89 -42.5 143 t-104.5 62z" />
<glyph unicode="|" horiz-adv-x="571" d="M211 -287v1772h149v-1772h-149z" />
<glyph unicode="}" horiz-adv-x="632" d="M82 -229h65q60 0 92.5 40t32.5 115v490q0 91 43.5 152t112.5 81v4q-67 16 -111.5 82t-44.5 160v375q0 78 -33 120t-94 42h-63v112h149q80 0 143.5 -63.5t63.5 -180.5v-370q0 -91 42 -144t106 -59v-145q-64 -8 -106 -58.5t-42 -138.5v-491q0 -116 -63.5 -175t-141.5 -59 h-151v111z" />
<glyph unicode="~" d="M25 492q56 113 118.5 164t141.5 51q65 0 210.5 -59.5t190.5 -59.5q53 0 87.5 25t78.5 96l104 -68q-102 -201 -262 -201q-59 0 -143 30.5t-159 60.5t-113 30q-39 0 -74 -29t-74 -104z" />
<glyph unicode="&#xa1;" horiz-adv-x="708" d="M227 877q0 53 37.5 90t91.5 37q52 0 89.5 -37t37.5 -90q0 -54 -37.5 -93t-89.5 -39q-54 0 -91.5 39t-37.5 93zM270 84l41 430h92l37 -430v-487h-170v487z" />
<glyph unicode="&#xa2;" d="M96 690q0 212 112 354t304 162v178h135v-174q106 -9 199 -36l-41 -150q-93 35 -203 35q-149 0 -232 -103t-83 -264q0 -163 80.5 -266.5t234.5 -103.5q67 0 118.5 16t115.5 49l51 -143q-101 -66 -240 -76v-168h-135v168q-193 27 -304.5 164.5t-111.5 357.5z" />
<glyph unicode="&#xa3;" d="M88 0v147h170v449h-141v133h141v189q0 136 47.5 245.5t142.5 175.5t222 66q111 0 223 -33l-33 -149q-75 30 -164 30q-74 0 -129 -26t-87.5 -73.5t-48 -108.5t-15.5 -136v-180h307v-133h-307v-449h461v-147h-789z" />
<glyph unicode="&#xa4;" d="M41 332l98 98q-90 113 -90 266q0 152 88 269l-96 98l88 92l96 -102q118 88 264 88q144 0 265 -90l100 102l88 -90l-100 -102q86 -117 86 -265q0 -147 -88 -262l102 -102l-92 -90l-98 102q-109 -86 -263 -86q-152 0 -262 84l-96 -100zM195 694q0 -124 85 -209.5t207 -85.5 q125 0 211 85.5t86 209.5q0 126 -86.5 213.5t-210.5 87.5q-122 0 -207 -87t-85 -214z" />
<glyph unicode="&#xa5;" d="M10 1384h185l297 -585l292 585h187l-275 -499h191v-109h-246l-57 -110v-37h303v-111h-303v-518h-185v518h-309v111h309v37l-57 110h-252v109h195z" />
<glyph unicode="&#xa6;" horiz-adv-x="571" d="M211 -287v805h149v-805h-149zM211 682v805h149v-805h-149z" />
<glyph unicode="&#xa7;" horiz-adv-x="995" d="M78 -141l61 137q111 -84 248 -84q85 0 161.5 47.5t117.5 134.5q-508 321 -508 768q0 117 27.5 211.5t72.5 155.5t106 101.5t124 57.5t130 17q161 0 267 -80l-64 -129q-35 26 -89 45t-114 19q-82 0 -151.5 -41.5t-104.5 -126.5q272 -152 390 -335t118 -417 q0 -115 -29.5 -212.5t-77 -163t-109.5 -112t-126 -67.5t-127 -21q-201 0 -323 95zM305 846q0 -354 404 -606q10 72 10 135q0 175 -102.5 328.5t-301.5 259.5q-10 -77 -10 -117z" />
<glyph unicode="&#xa8;" horiz-adv-x="718" d="M53 1298q0 46 31.5 78.5t77.5 32.5q47 0 78.5 -32.5t31.5 -78.5q0 -47 -31.5 -77.5t-78.5 -30.5q-46 0 -77.5 30.5t-31.5 77.5zM446 1298q0 46 31 78.5t78 32.5q46 0 78.5 -32.5t32.5 -78.5q0 -47 -32.5 -77.5t-78.5 -30.5q-47 0 -78 30.5t-31 77.5z" />
<glyph unicode="&#xa9;" horiz-adv-x="1507" d="M76 653q0 139 54 265.5t145 217.5t216.5 145t262.5 54t262.5 -54t216.5 -145t145 -217.5t54 -265.5q0 -138 -54 -263.5t-145 -216.5t-216.5 -144.5t-262.5 -53.5t-262.5 53.5t-216.5 144.5t-145 216.5t-54 263.5zM203 653q0 -152 71.5 -279t199 -201.5t282.5 -74.5 q158 0 285.5 74.5t198.5 201.5t71 279q0 154 -71 282t-198.5 202.5t-285.5 74.5q-156 0 -283 -74.5t-198.5 -202.5t-71.5 -282zM420 668q0 169 94 278t252 109q102 0 184 -29l-32 -111q-62 23 -158 23q-70 0 -121 -41.5t-74.5 -104.5t-23.5 -139q0 -115 63 -190.5t160 -75.5 q104 0 186 45l29 -102q-91 -56 -213 -56q-150 0 -248 114t-98 280z" />
<glyph unicode="&#xaa;" horiz-adv-x="743" d="M51 782q0 50 18.5 90.5t48 67t68.5 44.5t77.5 26t76.5 8q63 0 141 -19q-7 84 -37 123t-116 39t-181 -35l-26 123q134 41 241 41q148 0 210 -73t67 -220l12 -360q-161 -80 -325 -80q-57 0 -104.5 12t-87 37t-61.5 70t-22 106zM201 780q0 -47 33 -76.5t98 -29.5 q93 0 160 47l-9 172q-46 16 -90 16q-95 0 -143.5 -35t-48.5 -94z" />
<glyph unicode="&#xab;" horiz-adv-x="964" d="M115 545l256 397h159l-227 -397l227 -402h-159zM434 545l256 397h160l-227 -397l227 -402h-160z" />
<glyph unicode="&#xac;" d="M31 639v147h921v-438h-155v291h-766z" />
<glyph unicode="&#xad;" horiz-adv-x="655" d="M72 537v182h522v-182h-522z" />
<glyph unicode="&#xae;" horiz-adv-x="1230" d="M96 918q0 106 41 203t111 167t166 111t202 41q140 0 259.5 -69.5t189.5 -190t70 -262.5t-70 -262.5t-189.5 -190.5t-259.5 -70q-141 0 -261 70t-189.5 190.5t-69.5 262.5zM209 918q0 -171 116.5 -290.5t288.5 -119.5q177 0 293.5 119t116.5 291t-116.5 291.5 t-293.5 119.5q-172 0 -288.5 -119.5t-116.5 -291.5zM434 649v559h156q219 0 219 -149q0 -102 -100 -139q26 -11 59 -80l82 -191h-107l-77 189q-14 32 -28.5 43.5t-43.5 11.5h-64v-244h-96zM530 975h76q109 0 109 84q0 69 -113 69h-72v-153z" />
<glyph unicode="&#xaf;" horiz-adv-x="663" d="M57 1233v115h549v-115h-549z" />
<glyph unicode="&#xb0;" horiz-adv-x="749" d="M113 1141q0 119 75 193.5t185 74.5q112 0 187 -74t75 -194q0 -117 -75 -188.5t-187 -71.5q-109 0 -184.5 71.5t-75.5 188.5zM223 1141q0 -64 44.5 -109t105.5 -45t105 45t44 109q0 65 -44 111t-105 46t-105.5 -46t-44.5 -111z" />
<glyph unicode="&#xb1;" d="M31 0v145h919v-145h-919zM31 639v147h387v390h147v-390h387v-147h-387v-387h-147v387h-387z" />
<glyph unicode="&#xb2;" horiz-adv-x="669" d="M88 676v149l88 86q68 68 104 106.5t76 89.5t57 94t17 85q0 48 -36 81.5t-107 33.5q-72 0 -152 -39l-22 127q96 41 206 41q126 0 194.5 -67.5t68.5 -174.5q0 -92 -53.5 -180t-153.5 -188l-115 -115h328v-129h-500z" />
<glyph unicode="&#xb3;" horiz-adv-x="659" d="M80 700l20 121q90 -41 168 -41q63 0 112.5 34t49.5 101q0 73 -47.5 106.5t-128.5 33.5h-70v116h60q178 0 178 123q0 53 -37.5 85t-95.5 32q-67 0 -156 -37l-24 117q106 39 210 39q119 0 189 -61t70 -154q0 -129 -99 -199q105 -63 105 -196t-84.5 -197t-223.5 -64 q-93 0 -196 41z" />
<glyph unicode="&#xb4;" horiz-adv-x="495" d="M96 1163l156 279h201l-228 -279h-129z" />
<glyph unicode="&#xb5;" horiz-adv-x="1087" d="M143 -492v1502h187v-817q86 -72 221 -72q99 0 154 70.5t55 193.5v625h184v-604q0 -210 -100.5 -316t-288.5 -106q-147 0 -225 36v-512h-187z" />
<glyph unicode="&#xb6;" horiz-adv-x="1179" d="M104 1010q0 193 110.5 282.5t309.5 89.5h490v-1874h-127v1747h-273v-1747h-127v1137q-165 6 -274 105.5t-109 259.5z" />
<glyph unicode="&#xb7;" horiz-adv-x="634" d="M205 508q0 51 31 83t79 32q49 0 82 -30.5t33 -84.5q0 -50 -33.5 -82.5t-81.5 -32.5q-46 0 -78 34t-32 81z" />
<glyph unicode="&#xb8;" horiz-adv-x="425" d="M80 -309q143 32 143 123q0 21 -10 51l96 24q43 -53 43 -125q0 -87 -57.5 -146.5t-155.5 -80.5z" />
<glyph unicode="&#xb9;" horiz-adv-x="499" d="M29 1415l356 125v-864h-149v686l-177 -68z" />
<glyph unicode="&#xba;" horiz-adv-x="813" d="M57 934q0 160 95.5 261t257.5 101q160 0 255 -101t95 -261q0 -168 -94.5 -272.5t-255.5 -104.5q-160 0 -256.5 105t-96.5 272zM231 934q0 -112 44.5 -181t134.5 -69q92 0 135 68.5t43 181.5q0 105 -47 172.5t-131 67.5q-85 0 -132 -67.5t-47 -172.5z" />
<glyph unicode="&#xbb;" horiz-adv-x="964" d="M115 143l229 400l-227 399h157l256 -399l-256 -400h-159zM434 143l230 400l-228 399h158l256 -399l-256 -400h-160z" />
<glyph unicode="&#xbc;" horiz-adv-x="1570" d="M29 1274l356 125v-864h-149v686l-177 -68zM360 0l711 1382h137l-710 -1382h-138zM948 266l330 582h192v-541h93v-131h-93v-176h-145v176h-348zM1122 307h203v101q0 44 6 290z" />
<glyph unicode="&#xbd;" horiz-adv-x="1570" d="M29 1274l356 125v-864h-149v686l-177 -68zM313 0l711 1382h137l-710 -1382h-138zM1030 0v150l88 86q68 68 104 106.5t76 89.5t57 93.5t17 84.5q0 48 -36 81.5t-107 33.5q-72 0 -152 -39l-22 127q96 41 207 41q126 0 194 -67.5t68 -174.5q0 -92 -53.5 -180t-153.5 -188 l-115 -115h328v-129h-500z" />
<glyph unicode="&#xbe;" horiz-adv-x="1570" d="M80 559l20 121q90 -41 168 -41q63 0 112.5 34t49.5 101q0 72 -47.5 105.5t-128.5 33.5h-70v117h60q178 0 178 123q0 53 -37.5 85t-95.5 32q-67 0 -156 -37l-24 117q106 39 210 39q119 0 189 -61t70 -154q0 -129 -99 -199q105 -63 105 -197q0 -133 -84 -196.5t-224 -63.5 q-93 0 -196 41zM422 0l711 1382h137l-711 -1382h-137zM948 266l330 582h192v-541h93v-131h-93v-176h-145v176h-348zM1122 307h203v101q0 44 6 290z" />
<glyph unicode="&#xbf;" horiz-adv-x="911" d="M145 -59q0 64 17.5 121t45.5 99.5t61.5 82t67 76.5t61.5 74t45.5 82.5t17.5 94.5v21h137v-33q0 -73 -28 -140t-68 -118.5t-80 -101.5t-68 -110.5t-28 -123.5q0 -99 73.5 -151t173.5 -52q101 0 207 48l54 -132q-125 -73 -308 -73q-160 0 -270.5 93t-110.5 243zM395 901 q0 53 37.5 90t91.5 37q52 0 89.5 -37t37.5 -90q0 -54 -37.5 -92.5t-89.5 -38.5q-54 0 -91.5 38.5t-37.5 92.5z" />
<glyph unicode="&#xc0;" horiz-adv-x="1306" d="M57 0l523 1382h143l526 -1382h-182l-133 365h-561l-135 -365h-181zM369 1741h200l152 -258h-129zM420 506h467l-113 305q-82 224 -119 377h-4q-31 -127 -121 -377z" />
<glyph unicode="&#xc1;" horiz-adv-x="1306" d="M57 0l523 1382h143l526 -1382h-182l-133 365h-561l-135 -365h-181zM420 506h467l-113 305q-82 224 -119 377h-4q-31 -127 -121 -377zM567 1483l150 258h203l-224 -258h-129z" />
<glyph unicode="&#xc2;" horiz-adv-x="1306" d="M57 0l523 1382h143l526 -1382h-182l-133 365h-561l-135 -365h-181zM387 1483l186 258h160l185 -258h-154l-111 174l-110 -174h-156zM420 506h467l-113 305q-82 224 -119 377h-4q-31 -127 -121 -377z" />
<glyph unicode="&#xc3;" horiz-adv-x="1306" d="M57 0l523 1382h143l526 -1382h-182l-133 365h-561l-135 -365h-181zM330 1495q2 96 52.5 155.5t137.5 59.5q46 0 135.5 -42t118.5 -42q75 0 78 84h123q-3 -97 -53.5 -156t-137.5 -59q-47 0 -138.5 41t-119.5 41q-75 0 -75 -82h-121zM420 506h467l-113 305 q-82 224 -119 377h-4q-31 -127 -121 -377z" />
<glyph unicode="&#xc4;" horiz-adv-x="1306" d="M57 0l523 1382h143l526 -1382h-182l-133 365h-561l-135 -365h-181zM344 1618q0 46 32 79.5t77 33.5q47 0 78.5 -33.5t31.5 -79.5t-31.5 -77.5t-78.5 -31.5q-46 0 -77.5 31.5t-31.5 77.5zM420 506h467l-113 305q-82 224 -119 377h-4q-31 -127 -121 -377zM741 1618 q0 46 32 79.5t79 33.5q46 0 78.5 -33.5t32.5 -79.5t-32.5 -77.5t-78.5 -31.5q-47 0 -79 31.5t-32 77.5z" />
<glyph unicode="&#xc5;" horiz-adv-x="1306" d="M57 0l502 1325q-47 23 -75.5 67.5t-28.5 104.5q0 90 57 146.5t141 56.5q85 0 143 -57t58 -146q0 -60 -30 -105.5t-79 -66.5l506 -1325h-182l-133 365h-561l-135 -365h-183zM422 506h467l-107 285q-80 211 -123 380h-8q-43 -169 -123 -380zM557 1497q0 -39 28.5 -68.5 t67.5 -29.5t69 30.5t30 67.5q0 41 -29.5 70.5t-69.5 29.5t-68 -29.5t-28 -70.5z" />
<glyph unicode="&#xc6;" horiz-adv-x="1626" d="M51 0l692 1382h742v-155h-531l29 -430h490v-160h-480l33 -475h526v-162h-692l-26 369h-424l-181 -369h-178zM477 510h348l-45 664z" />
<glyph unicode="&#xc7;" horiz-adv-x="1142" d="M76 696q0 145 46.5 274t130 225.5t209 153t275.5 56.5q169 0 326 -49l-47 -164q-122 45 -273 45q-144 0 -256 -75t-170.5 -198t-58.5 -270q0 -112 30.5 -209.5t90 -175t157 -122t222.5 -44.5q164 0 282 47l41 -161q-144 -54 -327 -54q-308 0 -493 194.5t-185 526.5z M494 -309q143 32 143 123q0 21 -10 51l96 24q43 -53 43 -125q0 -87 -57.5 -146.5t-155.5 -80.5z" />
<glyph unicode="&#xc8;" horiz-adv-x="970" d="M158 0v1382h739v-161h-555v-430h508v-160h-508v-469h555v-162h-739zM276 1741h201l152 -258h-129z" />
<glyph unicode="&#xc9;" horiz-adv-x="970" d="M158 0v1382h739v-161h-555v-430h508v-160h-508v-469h555v-162h-739zM449 1483l149 258h203l-223 -258h-129z" />
<glyph unicode="&#xca;" horiz-adv-x="970" d="M158 0v1382h739v-161h-555v-430h508v-160h-508v-469h555v-162h-739zM250 1483l186 258h160l184 -258h-153l-111 174l-110 -174h-156z" />
<glyph unicode="&#xcb;" horiz-adv-x="970" d="M158 0v1382h739v-161h-555v-430h508v-160h-508v-469h555v-162h-739zM209 1618q0 46 31.5 79.5t76.5 33.5q47 0 79 -33.5t32 -79.5t-32 -77.5t-79 -31.5q-46 0 -77 31.5t-31 77.5zM606 1618q0 46 32 79.5t79 33.5q45 0 77.5 -33.5t32.5 -79.5t-32 -77.5t-78 -31.5 q-47 0 -79 31.5t-32 77.5z" />
<glyph unicode="&#xcc;" horiz-adv-x="499" d="M2 1741h201l151 -258h-129zM158 0v1382h184v-1382h-184z" />
<glyph unicode="&#xcd;" horiz-adv-x="499" d="M152 1483l149 258h203l-223 -258h-129zM158 0v1382h184v-1382h-184z" />
<glyph unicode="&#xce;" horiz-adv-x="499" d="M-12 1483l186 258h160l184 -258h-153l-111 174l-111 -174h-155zM158 0v1382h184v-1382h-184z" />
<glyph unicode="&#xcf;" horiz-adv-x="499" d="M-16 1618q0 46 31.5 79.5t76.5 33.5q47 0 79 -33.5t32 -79.5t-32 -77.5t-79 -31.5q-46 0 -77 31.5t-31 77.5zM158 0v1382h184v-1382h-184zM299 1618q0 46 32 79.5t79 33.5q45 0 77.5 -33.5t32.5 -79.5t-32 -77.5t-78 -31.5q-47 0 -79 31.5t-32 77.5z" />
<glyph unicode="&#xd0;" horiz-adv-x="1331" d="M53 631v166h105v585h493q125 0 235.5 -48t192.5 -134t130 -214.5t48 -280.5q0 -336 -172.5 -520.5t-466.5 -184.5h-460v631h-105zM342 162h274q218 0 335.5 143.5t117.5 390.5q0 241 -123 383t-313 142h-291v-424h381v-166h-381v-469z" />
<glyph unicode="&#xd1;" horiz-adv-x="1423" d="M158 0v1382h223l711 -1118h4q-15 296 -15 598v520h187v-1382h-205l-731 1157h-4q14 -291 14 -637v-520h-184zM430 1495q2 96 53 155.5t138 59.5q46 0 135 -42t118 -42q75 0 78 84h123q-3 -98 -53 -156.5t-137 -58.5q-47 0 -138.5 41t-119.5 41q-76 0 -76 -82h-121z" />
<glyph unicode="&#xd2;" horiz-adv-x="1394" d="M76 692q0 321 172.5 517t447.5 196t449 -196t174 -519q0 -162 -46.5 -297t-129 -226t-197.5 -141.5t-250 -50.5q-134 0 -248 50t-196.5 141.5t-129 226.5t-46.5 299zM272 690q0 -84 15 -162t48 -150t81.5 -125t121 -84.5t160.5 -31.5t160 32t120 85t80.5 125t47 149.5 t14.5 161.5q0 82 -14.5 159.5t-47 150t-80.5 126t-120 85.5t-160 32q-87 0 -159.5 -31.5t-121 -84.5t-82 -125t-48.5 -150t-15 -162zM461 1741h201l151 -258h-129z" />
<glyph unicode="&#xd3;" horiz-adv-x="1394" d="M76 692q0 321 172.5 517t447.5 196t449 -196t174 -519q0 -162 -46.5 -297t-129 -226t-197.5 -141.5t-250 -50.5q-134 0 -248 50t-196.5 141.5t-129 226.5t-46.5 299zM272 690q0 -84 15 -162t48 -150t81.5 -125t121 -84.5t160.5 -31.5t160 32t120 85t80.5 125t47 149.5 t14.5 161.5q0 82 -14.5 159.5t-47 150t-80.5 126t-120 85.5t-160 32q-87 0 -159.5 -31.5t-121 -84.5t-82 -125t-48.5 -150t-15 -162zM623 1483l149 258h203l-223 -258h-129z" />
<glyph unicode="&#xd4;" horiz-adv-x="1394" d="M76 692q0 321 172.5 517t447.5 196t449 -196t174 -519q0 -162 -46.5 -297t-129 -226t-197.5 -141.5t-250 -50.5q-134 0 -248 50t-196.5 141.5t-129 226.5t-46.5 299zM272 690q0 -84 15 -162t48 -150t81.5 -125t121 -84.5t160.5 -31.5t160 32t120 85t80.5 125t47 149.5 t14.5 161.5q0 82 -14.5 159.5t-47 150t-80.5 126t-120 85.5t-160 32q-87 0 -159.5 -31.5t-121 -84.5t-82 -125t-48.5 -150t-15 -162zM438 1483l187 258h159l185 -258h-154l-110 174l-111 -174h-156z" />
<glyph unicode="&#xd5;" horiz-adv-x="1394" d="M76 692q0 321 172.5 517t447.5 196t449 -196t174 -519q0 -162 -46.5 -297t-129 -226t-197.5 -141.5t-250 -50.5q-134 0 -248 50t-196.5 141.5t-129 226.5t-46.5 299zM272 690q0 -84 15 -162t48 -150t81.5 -125t121 -84.5t160.5 -31.5t160 32t120 85t80.5 125t47 149.5 t14.5 161.5q0 82 -14.5 159.5t-47 150t-80.5 126t-120 85.5t-160 32q-87 0 -159.5 -31.5t-121 -84.5t-82 -125t-48.5 -150t-15 -162zM379 1495q2 96 52.5 155.5t137.5 59.5q46 0 135.5 -42t118.5 -42q75 0 78 84h123q-3 -98 -53 -156.5t-137 -58.5q-47 0 -139 41t-120 41 q-75 0 -75 -82h-121z" />
<glyph unicode="&#xd6;" horiz-adv-x="1394" d="M76 692q0 321 172.5 517t447.5 196t449 -196t174 -519q0 -162 -46.5 -297t-129 -226t-197.5 -141.5t-250 -50.5q-134 0 -248 50t-196.5 141.5t-129 226.5t-46.5 299zM272 690q0 -84 15 -162t48 -150t81.5 -125t121 -84.5t160.5 -31.5t160 32t120 85t80.5 125t47 149.5 t14.5 161.5q0 82 -14.5 159.5t-47 150t-80.5 126t-120 85.5t-160 32q-87 0 -159.5 -31.5t-121 -84.5t-82 -125t-48.5 -150t-15 -162zM395 1618q0 46 32 79.5t77 33.5q47 0 78.5 -33.5t31.5 -79.5t-31.5 -77.5t-78.5 -31.5q-46 0 -77.5 31.5t-31.5 77.5zM793 1618 q0 46 31.5 79.5t78.5 33.5q46 0 78.5 -33.5t32.5 -79.5t-32.5 -77.5t-78.5 -31.5q-47 0 -78.5 31.5t-31.5 77.5z" />
<glyph unicode="&#xd7;" d="M113 430l276 277l-274 274l100 100l274 -274l277 276l102 -104l-274 -274l274 -275l-102 -102l-274 274l-275 -276z" />
<glyph unicode="&#xd8;" horiz-adv-x="1394" d="M76 692q0 321 172.5 517t447.5 196q165 0 308 -84l51 88l94 -55l-53 -97q106 -94 164.5 -239t58.5 -328q0 -162 -46.5 -297t-129 -226t-197.5 -141.5t-250 -50.5q-158 0 -290 72l-62 -108l-96 55l65 112q-113 94 -175 243.5t-62 342.5zM272 690q0 -122 35 -232t103 -182 l512 900q-100 67 -226 67q-87 0 -158.5 -31.5t-120 -84.5t-82 -125t-48.5 -150t-15 -162zM489 193q91 -56 207 -56q108 0 191 45.5t133 124t75 175.5t25 208q0 243 -121 400z" />
<glyph unicode="&#xd9;" horiz-adv-x="1314" d="M156 563v819h184v-825q0 -209 85.5 -314.5t238.5 -105.5q311 0 311 428v817h184v-823q0 -100 -16 -185.5t-53.5 -160t-93.5 -126.5t-140 -82t-190 -30q-109 0 -199.5 34t-161 103t-110 184t-39.5 267zM412 1741h200l152 -258h-129z" />
<glyph unicode="&#xda;" horiz-adv-x="1314" d="M156 563v819h184v-825q0 -209 85.5 -314.5t238.5 -105.5q311 0 311 428v817h184v-823q0 -100 -16 -185.5t-53.5 -160t-93.5 -126.5t-140 -82t-190 -30q-109 0 -199.5 34t-161 103t-110 184t-39.5 267zM545 1483l149 258h203l-223 -258h-129z" />
<glyph unicode="&#xdb;" horiz-adv-x="1314" d="M156 563v819h184v-825q0 -209 85.5 -314.5t238.5 -105.5q311 0 311 428v817h184v-823q0 -100 -16 -185.5t-53.5 -160t-93.5 -126.5t-140 -82t-190 -30q-109 0 -199.5 34t-161 103t-110 184t-39.5 267zM389 1483l186 258h160l185 -258h-154l-111 174l-110 -174h-156z" />
<glyph unicode="&#xdc;" horiz-adv-x="1314" d="M156 563v819h184v-825q0 -209 85.5 -314.5t238.5 -105.5q311 0 311 428v817h184v-823q0 -100 -16 -185.5t-53.5 -160t-93.5 -126.5t-140 -82t-190 -30q-109 0 -199.5 34t-161 103t-110 184t-39.5 267zM352 1618q0 46 32 79.5t77 33.5q47 0 78.5 -33.5t31.5 -79.5 t-31.5 -77.5t-78.5 -31.5q-46 0 -77.5 31.5t-31.5 77.5zM750 1618q0 46 31.5 79.5t78.5 33.5q46 0 78.5 -33.5t32.5 -79.5t-32.5 -77.5t-78.5 -31.5q-47 0 -78.5 31.5t-31.5 77.5z" />
<glyph unicode="&#xdd;" horiz-adv-x="1107" d="M29 1382h196l344 -694l340 694h195l-442 -862v-520h-185v520zM524 1483l150 258h203l-224 -258h-129z" />
<glyph unicode="&#xde;" horiz-adv-x="1054" d="M158 0v1382h184v-270h172q102 0 184.5 -20.5t148.5 -64t102 -120t36 -180.5q0 -197 -127 -304.5t-336 -107.5h-180v-315h-184zM342 473h166q147 0 221 66t74 186q0 122 -71.5 174.5t-225.5 52.5h-164v-479z" />
<glyph unicode="&#xdf;" horiz-adv-x="1185" d="M152 0v1059q0 215 114 323.5t307 108.5t306.5 -108.5t113.5 -323.5v-90q-272 -41 -272 -193q0 -44 22 -78t58 -56.5t78.5 -44t85.5 -47.5t79 -59t58 -87t22 -123q0 -153 -91 -229.5t-236 -76.5q-76 0 -150 24.5t-119 55.5l58 144q40 -31 98 -55.5t115 -24.5q63 0 105 39 t42 112q0 46 -22.5 82t-58 60.5t-78.5 47t-86.5 49t-79 59t-58 84.5t-22.5 118q0 108 70.5 184t199.5 105q0 148 -63 218.5t-175 70.5t-174.5 -70.5t-62.5 -218.5v-1059h-184z" />
<glyph unicode="&#xe0;" horiz-adv-x="1019" d="M74 307q0 77 33 137.5t88 97t121.5 55.5t138.5 19q123 0 245 -45q0 76 -10.5 130.5t-38 100t-79 68.5t-128.5 23q-101 0 -229 -47l-43 135q161 53 295 53q209 0 312.5 -112.5t103.5 -311.5v-325q0 -128 12 -238q-222 -72 -422 -72q-193 0 -296 87t-103 245zM229 1442h201 l158 -279h-131zM242 295q0 -78 58 -128t173 -50q142 0 234 37q-7 54 -7 139v133q-104 49 -223 49q-114 0 -174.5 -45t-60.5 -135z" />
<glyph unicode="&#xe1;" horiz-adv-x="1019" d="M74 307q0 77 33 137.5t88 97t121.5 55.5t138.5 19q123 0 245 -45q0 76 -10.5 130.5t-38 100t-79 68.5t-128.5 23q-101 0 -229 -47l-43 135q161 53 295 53q209 0 312.5 -112.5t103.5 -311.5v-325q0 -128 12 -238q-222 -72 -422 -72q-193 0 -296 87t-103 245zM242 295 q0 -78 58 -128t173 -50q142 0 234 37q-7 54 -7 139v133q-104 49 -223 49q-114 0 -174.5 -45t-60.5 -135zM389 1163l156 279h200l-227 -279h-129z" />
<glyph unicode="&#xe2;" horiz-adv-x="1019" d="M74 307q0 77 33 137.5t88 97t121.5 55.5t138.5 19q123 0 245 -45q0 76 -10.5 130.5t-38 100t-79 68.5t-128.5 23q-101 0 -229 -47l-43 135q161 53 295 53q209 0 312.5 -112.5t103.5 -311.5v-325q0 -128 12 -238q-222 -72 -422 -72q-193 0 -296 87t-103 245zM233 1163 l179 279h178l176 -279h-154l-112 187l-111 -187h-156zM242 295q0 -78 58 -128t173 -50q142 0 234 37q-7 54 -7 139v133q-104 49 -223 49q-114 0 -174.5 -45t-60.5 -135z" />
<glyph unicode="&#xe3;" horiz-adv-x="1019" d="M74 307q0 77 33 137.5t88 97t121.5 55.5t138.5 19q123 0 245 -45q0 76 -10.5 130.5t-38 100t-79 68.5t-128.5 23q-101 0 -229 -47l-43 135q161 53 295 53q209 0 312.5 -112.5t103.5 -311.5v-325q0 -128 12 -238q-222 -72 -422 -72q-193 0 -296 87t-103 245zM182 1176 q2 97 52.5 157t138.5 60q46 0 136.5 -41t117.5 -41q75 0 78 82h122q-3 -98 -53 -157.5t-137 -59.5q-47 0 -137.5 39.5t-120.5 39.5q-76 0 -76 -79h-121zM242 295q0 -78 58 -128t173 -50q142 0 234 37q-7 54 -7 139v133q-104 49 -223 49q-114 0 -174.5 -45t-60.5 -135z" />
<glyph unicode="&#xe4;" horiz-adv-x="1019" d="M74 307q0 77 33 137.5t88 97t121.5 55.5t138.5 19q123 0 245 -45q0 76 -10.5 130.5t-38 100t-79 68.5t-128.5 23q-101 0 -229 -47l-43 135q161 53 295 53q209 0 312.5 -112.5t103.5 -311.5v-325q0 -128 12 -238q-222 -72 -422 -72q-193 0 -296 87t-103 245zM180 1298 q0 46 31.5 78.5t77.5 32.5q47 0 78.5 -32.5t31.5 -78.5q0 -47 -31.5 -77.5t-78.5 -30.5q-46 0 -77.5 30.5t-31.5 77.5zM242 295q0 -78 58 -128t173 -50q142 0 234 37q-7 54 -7 139v133q-104 49 -223 49q-114 0 -174.5 -45t-60.5 -135zM573 1298q0 46 31 78.5t78 32.5 q46 0 78.5 -32.5t32.5 -78.5q0 -47 -32.5 -77.5t-78.5 -30.5q-47 0 -78 30.5t-31 77.5z" />
<glyph unicode="&#xe5;" horiz-adv-x="1019" d="M74 307q0 77 33 137.5t88 97t121.5 55.5t138.5 19q123 0 245 -45q0 76 -10.5 130.5t-38 100t-79 68.5t-128.5 23q-101 0 -229 -47l-43 135q161 53 295 53q209 0 312.5 -112.5t103.5 -311.5v-325q0 -128 12 -238q-222 -72 -422 -72q-193 0 -296 87t-103 245zM242 295 q0 -78 58 -128t173 -50q142 0 234 37q-7 54 -7 139v133q-104 49 -223 49q-114 0 -174.5 -45t-60.5 -135zM303 1333q0 86 56 140.5t135 54.5q81 0 136.5 -55t55.5 -140t-55.5 -139.5t-136.5 -54.5q-79 0 -135 54.5t-56 139.5zM403 1333q0 -35 28.5 -63.5t64.5 -28.5 q35 0 62.5 28.5t27.5 63.5q0 37 -27.5 64.5t-62.5 27.5q-37 0 -65 -27.5t-28 -64.5z" />
<glyph unicode="&#xe6;" horiz-adv-x="1646" d="M74 307q0 99 56 171t142 105t189 33q97 0 225 -41q0 61 -5 105t-20 86t-41 68t-68.5 41.5t-102.5 15.5q-106 0 -234 -47l-43 137q154 53 301 53q254 0 332 -184q138 184 344 184q128 0 221 -62t138.5 -165.5t45.5 -235.5q0 -43 -6 -84h-669q12 -165 110 -269.5 t254 -104.5q123 0 230 43l34 -123q-50 -26 -131 -42t-153 -16q-194 0 -336 111q-93 -52 -189.5 -81.5t-228.5 -29.5q-191 0 -293 87t-102 245zM242 297q0 -78 58 -131t171 -53q166 0 287 86q-62 105 -68 233q-88 43 -213 43q-109 0 -172 -43.5t-63 -134.5zM883 606h508 q0 136 -68 217.5t-170 81.5q-62 0 -112.5 -27t-82.5 -71t-50.5 -95t-24.5 -106z" />
<glyph unicode="&#xe7;" horiz-adv-x="944" d="M80 508q0 111 34 207.5t96.5 167t155 111t203.5 40.5q138 0 260 -43l-45 -143q-90 35 -192 35q-146 0 -232 -108t-86 -265q0 -162 86 -272.5t228 -110.5q110 0 235 59l49 -137q-136 -74 -307 -74q-211 0 -348 148t-137 385zM362 -309q144 32 144 123q0 21 -10 51l96 24 q43 -53 43 -125q0 -87 -57.5 -146.5t-155.5 -80.5z" />
<glyph unicode="&#xe8;" horiz-adv-x="1034" d="M80 516q0 117 36.5 216t98.5 164.5t143 101.5t170 36q133 0 228.5 -63.5t140.5 -167t45 -234.5q0 -47 -6 -84h-666q2 -163 102 -267.5t267 -104.5q126 0 223 43l35 -123q-123 -58 -287 -58q-232 0 -381 145.5t-149 395.5zM270 604h508q0 138 -66 219.5t-173 81.5 q-61 0 -111.5 -27.5t-82 -72t-50.5 -96t-25 -105.5zM270 1442h201l158 -279h-131z" />
<glyph unicode="&#xe9;" horiz-adv-x="1034" d="M80 516q0 117 36.5 216t98.5 164.5t143 101.5t170 36q133 0 228.5 -63.5t140.5 -167t45 -234.5q0 -47 -6 -84h-666q2 -163 102 -267.5t267 -104.5q126 0 223 43l35 -123q-123 -58 -287 -58q-232 0 -381 145.5t-149 395.5zM270 604h508q0 138 -66 219.5t-173 81.5 q-61 0 -111.5 -27.5t-82 -72t-50.5 -96t-25 -105.5zM459 1163l155 279h201l-227 -279h-129z" />
<glyph unicode="&#xea;" horiz-adv-x="1034" d="M80 516q0 117 36.5 216t98.5 164.5t143 101.5t170 36q133 0 228.5 -63.5t140.5 -167t45 -234.5q0 -47 -6 -84h-666q2 -163 102 -267.5t267 -104.5q126 0 223 43l35 -123q-123 -58 -287 -58q-232 0 -381 145.5t-149 395.5zM270 604h508q0 138 -66 219.5t-173 81.5 q-61 0 -111.5 -27.5t-82 -72t-50.5 -96t-25 -105.5zM274 1163l179 279h178l176 -279h-154l-112 187l-111 -187h-156z" />
<glyph unicode="&#xeb;" horiz-adv-x="1034" d="M80 516q0 117 36.5 216t98.5 164.5t143 101.5t170 36q133 0 228.5 -63.5t140.5 -167t45 -234.5q0 -47 -6 -84h-666q2 -163 102 -267.5t267 -104.5q126 0 223 43l35 -123q-123 -58 -287 -58q-232 0 -381 145.5t-149 395.5zM236 1298q0 46 31.5 78.5t76.5 32.5 q47 0 79 -32.5t32 -78.5q0 -47 -31.5 -77.5t-79.5 -30.5q-46 0 -77 30.5t-31 77.5zM270 604h508q0 138 -66 219.5t-173 81.5q-61 0 -111.5 -27.5t-82 -72t-50.5 -96t-25 -105.5zM629 1298q0 46 30.5 78.5t77.5 32.5q46 0 78.5 -32.5t32.5 -78.5q0 -47 -32.5 -77.5 t-78.5 -30.5q-47 0 -77.5 30.5t-30.5 77.5z" />
<glyph unicode="&#xec;" horiz-adv-x="489" d="M-14 1442h200l158 -279h-131zM150 0v1010h186v-1010h-186z" />
<glyph unicode="&#xed;" horiz-adv-x="489" d="M139 1163l156 279h201l-228 -279h-129zM150 0v1010h186v-1010h-186z" />
<glyph unicode="&#xee;" horiz-adv-x="489" d="M-20 1163l178 279h178l176 -279h-154l-112 187l-111 -187h-155zM150 0v1010h186v-1010h-186z" />
<glyph unicode="&#xef;" horiz-adv-x="489" d="M-59 1298q0 46 31.5 78.5t76.5 32.5q47 0 79 -32.5t32 -78.5q0 -47 -31.5 -77.5t-79.5 -30.5q-46 0 -77 30.5t-31 77.5zM150 0v1010h186v-1010h-186zM334 1298q0 46 30.5 78.5t77.5 32.5q46 0 78.5 -32.5t32.5 -78.5q0 -47 -32.5 -77.5t-78.5 -30.5q-47 0 -77.5 30.5 t-30.5 77.5z" />
<glyph unicode="&#xf0;" horiz-adv-x="1142" d="M82 508q0 227 128.5 376.5t338.5 149.5q131 0 213 -65l4 4q-91 154 -225 264l-279 -154l-55 95l242 131q-84 61 -213 127l53 96q151 -69 272 -152l242 140l53 -95l-192 -112q193 -169 295 -362t102 -433q0 -241 -136 -392t-352 -151q-224 0 -357.5 148.5t-133.5 384.5z M276 506q0 -77 18 -145t53 -122.5t93.5 -86t132.5 -31.5q139 0 216 110.5t77 276.5q0 163 -78.5 268t-214.5 105q-141 0 -219 -105t-78 -270z" />
<glyph unicode="&#xf1;" horiz-adv-x="1153" d="M133 952q184 82 412 82q100 0 181.5 -22.5t146 -71t100 -131.5t35.5 -195v-614h-185v623q0 66 -15 114.5t-39.5 77.5t-61.5 46.5t-75 23.5t-87 6q-130 0 -215 -43v-848h-185v621q0 204 -12 331zM238 1176q2 97 52 157t138 60q46 0 136.5 -41t117.5 -41q75 0 78 82h123 q-3 -98 -53.5 -157.5t-137.5 -59.5q-47 0 -137.5 39.5t-120.5 39.5q-76 0 -76 -79h-120z" />
<glyph unicode="&#xf2;" horiz-adv-x="1138" d="M80 510q0 227 135 375.5t354 148.5t354.5 -149t135.5 -375q0 -235 -137 -385t-353 -150q-217 0 -353 149.5t-136 385.5zM274 510q0 -109 33.5 -197t101.5 -142t160 -54q136 0 215.5 113t79.5 280q0 165 -79 274t-216 109q-138 0 -216.5 -109t-78.5 -274zM324 1442h200 l158 -279h-131z" />
<glyph unicode="&#xf3;" horiz-adv-x="1138" d="M80 510q0 227 135 375.5t354 148.5t354.5 -149t135.5 -375q0 -235 -137 -385t-353 -150q-217 0 -353 149.5t-136 385.5zM274 510q0 -109 33.5 -197t101.5 -142t160 -54q136 0 215.5 113t79.5 280q0 165 -79 274t-216 109q-138 0 -216.5 -109t-78.5 -274zM473 1163 l156 279h200l-227 -279h-129z" />
<glyph unicode="&#xf4;" horiz-adv-x="1138" d="M80 510q0 227 135 375.5t354 148.5t354.5 -149t135.5 -375q0 -235 -137 -385t-353 -150q-217 0 -353 149.5t-136 385.5zM274 510q0 -109 33.5 -197t101.5 -142t160 -54q136 0 215.5 113t79.5 280q0 165 -79 274t-216 109q-138 0 -216.5 -109t-78.5 -274zM307 1163 l178 279h179l176 -279h-154l-113 187l-110 -187h-156z" />
<glyph unicode="&#xf5;" horiz-adv-x="1138" d="M80 510q0 227 135 375.5t354 148.5t354.5 -149t135.5 -375q0 -235 -137 -385t-353 -150q-217 0 -353 149.5t-136 385.5zM246 1176q2 97 52 157t138 60q46 0 136.5 -41t117.5 -41q75 0 78 82h123q-3 -98 -53.5 -157.5t-137.5 -59.5q-47 0 -137.5 39.5t-120.5 39.5 q-75 0 -75 -79h-121zM274 510q0 -109 33.5 -197t101.5 -142t160 -54q136 0 215.5 113t79.5 280q0 165 -79 274t-216 109q-138 0 -216.5 -109t-78.5 -274z" />
<glyph unicode="&#xf6;" horiz-adv-x="1138" d="M80 510q0 227 135 375.5t354 148.5t354.5 -149t135.5 -375q0 -235 -137 -385t-353 -150q-217 0 -353 149.5t-136 385.5zM260 1298q0 46 31.5 78.5t77.5 32.5q47 0 78.5 -32.5t31.5 -78.5q0 -47 -31.5 -77.5t-78.5 -30.5q-46 0 -77.5 30.5t-31.5 77.5zM274 510 q0 -109 33.5 -197t101.5 -142t160 -54q136 0 215.5 113t79.5 280q0 165 -79 274t-216 109q-138 0 -216.5 -109t-78.5 -274zM653 1298q0 46 31 78.5t78 32.5q46 0 78 -32.5t32 -78.5q0 -47 -32 -77.5t-78 -30.5q-47 0 -78 30.5t-31 77.5z" />
<glyph unicode="&#xf7;" d="M31 639v147h921v-147h-921zM369 377q0 54 37.5 92.5t89.5 38.5q54 0 91.5 -38.5t37.5 -92.5q0 -53 -37.5 -90t-91.5 -37q-52 0 -89.5 37t-37.5 90zM369 1047q0 54 37.5 92.5t89.5 38.5q54 0 91.5 -38.5t37.5 -92.5q0 -53 -37.5 -90t-91.5 -37q-52 0 -89.5 37t-37.5 90z " />
<glyph unicode="&#xf8;" horiz-adv-x="1138" d="M80 510q0 227 135 375.5t354 148.5q140 0 256 -69l66 96l61 -43l-65 -98q82 -71 127 -177.5t45 -232.5q0 -235 -137 -385t-353 -150q-149 0 -262 72l-80 -121l-61 45l82 123q-80 71 -124 178t-44 238zM274 510q0 -158 70 -270l395 594q-72 59 -170 59q-138 0 -216.5 -109 t-78.5 -274zM395 180q72 -63 174 -63q136 0 215.5 113t79.5 280q0 158 -73 264z" />
<glyph unicode="&#xf9;" horiz-adv-x="1150" d="M143 401v609h187v-613q0 -83 21.5 -140.5t62 -86.5t87 -41t107.5 -12q134 0 219 43q-6 85 -6 237v613h185v-641q0 -184 8 -312q-181 -82 -414 -82q-98 0 -178.5 23.5t-144 73t-99 133.5t-35.5 196zM317 1442h201l158 -279h-131z" />
<glyph unicode="&#xfa;" horiz-adv-x="1150" d="M143 401v609h187v-613q0 -83 21.5 -140.5t62 -86.5t87 -41t107.5 -12q134 0 219 43q-6 85 -6 237v613h185v-641q0 -184 8 -312q-181 -82 -414 -82q-98 0 -178.5 23.5t-144 73t-99 133.5t-35.5 196zM518 1163l156 279h200l-227 -279h-129z" />
<glyph unicode="&#xfb;" horiz-adv-x="1150" d="M143 401v609h187v-613q0 -83 21.5 -140.5t62 -86.5t87 -41t107.5 -12q134 0 219 43q-6 85 -6 237v613h185v-641q0 -184 8 -312q-181 -82 -414 -82q-98 0 -178.5 23.5t-144 73t-99 133.5t-35.5 196zM317 1163l179 279h178l176 -279h-154l-112 187l-111 -187h-156z" />
<glyph unicode="&#xfc;" horiz-adv-x="1150" d="M143 401v609h187v-613q0 -83 21.5 -140.5t62 -86.5t87 -41t107.5 -12q134 0 219 43q-6 85 -6 237v613h185v-641q0 -184 8 -312q-181 -82 -414 -82q-98 0 -178.5 23.5t-144 73t-99 133.5t-35.5 196zM289 1298q0 46 31.5 78.5t76.5 32.5q47 0 79 -32.5t32 -78.5 q0 -47 -31.5 -77.5t-79.5 -30.5q-46 0 -77 30.5t-31 77.5zM682 1298q0 46 31 78.5t78 32.5q46 0 78 -32.5t32 -78.5q0 -47 -32 -77.5t-78 -30.5q-47 0 -78 30.5t-31 77.5z" />
<glyph unicode="&#xfd;" horiz-adv-x="948" d="M20 1010h195l115 -322q72 -200 145 -461h6q56 211 142 459l114 324h191l-494 -1309q-37 -98 -98 -145.5t-164 -47.5h-51l-15 156h58q92 0 121 80l112 289zM387 1163l156 279h200l-227 -279h-129z" />
<glyph unicode="&#xfe;" horiz-adv-x="1142" d="M143 -492v1956h187v-475q116 45 235 45q238 0 365 -140.5t127 -387.5q0 -146 -53.5 -265.5t-160.5 -192.5t-249 -73q-156 0 -264 70v-537h-187zM330 184q94 -80 239 -80q124 0 207.5 111t83.5 291q0 191 -90.5 292t-245.5 101q-108 0 -194 -47v-668z" />
<glyph unicode="&#xff;" horiz-adv-x="948" d="M20 1010h195l115 -322q72 -200 145 -461h6q56 211 142 459l114 324h191l-494 -1309q-37 -98 -98 -145.5t-164 -47.5h-51l-15 156h58q92 0 121 80l112 289zM172 1298q0 46 31.5 78.5t77.5 32.5q47 0 78.5 -32.5t31.5 -78.5q0 -47 -31.5 -77.5t-78.5 -30.5 q-46 0 -77.5 30.5t-31.5 77.5zM565 1298q0 46 31 78.5t78 32.5q46 0 78 -32.5t32 -78.5q0 -47 -32 -77.5t-78 -30.5q-47 0 -78 30.5t-31 77.5z" />
<glyph unicode="&#x152;" horiz-adv-x="1679" d="M76 692q0 212 79 374.5t219 250.5t318 88q88 0 174 -25v2h740v-161h-555v-430h510v-160h-510v-469h555v-162h-701q-146 -25 -213 -25q-131 0 -244 50t-195.5 141.5t-129.5 227t-47 298.5zM274 690q0 -110 26 -207t76 -175.5t134 -124.5t192 -46q92 0 164 35v1040 q-81 31 -164 31q-87 0 -159 -30.5t-121 -82.5t-83 -123t-49.5 -150.5t-15.5 -166.5z" />
<glyph unicode="&#x153;" horiz-adv-x="1826" d="M80 514q0 225 135 372.5t354 147.5q128 0 230 -59.5t162 -163.5q57 105 152 164t208 59q134 0 229 -63t140 -166t45 -234q0 -47 -6 -84h-668q11 -167 107.5 -270.5t261.5 -103.5q126 0 223 43l37 -123q-123 -58 -289 -58q-142 0 -255.5 60t-178.5 174q-61 -110 -165 -172 t-233 -62q-215 0 -352 152t-137 387zM274 512q0 -169 79 -282t216 -113q136 0 215.5 114.5t79.5 282.5q0 164 -79 271.5t-216 107.5q-138 0 -216.5 -107.5t-78.5 -273.5zM1063 606h508q0 138 -66.5 218.5t-175.5 80.5q-60 0 -110 -27t-81.5 -71t-50.5 -95t-24 -106z" />
<glyph unicode="&#x178;" horiz-adv-x="1107" d="M29 1382h196l344 -694l340 694h195l-442 -862v-520h-185v520zM260 1618q0 46 32 79.5t77 33.5q47 0 78.5 -33.5t31.5 -79.5t-31.5 -77.5t-78.5 -31.5q-46 0 -77.5 31.5t-31.5 77.5zM657 1618q0 46 32 79.5t79 33.5q46 0 78.5 -33.5t32.5 -79.5t-32.5 -77.5t-78.5 -31.5 q-47 0 -79 31.5t-32 77.5z" />
<glyph unicode="&#x2c6;" horiz-adv-x="688" d="M78 1163l178 279h178l176 -279h-153l-113 187l-111 -187h-155z" />
<glyph unicode="&#x2dc;" horiz-adv-x="759" d="M57 1176q2 97 52.5 157t138.5 60q46 0 136.5 -41t117.5 -41q75 0 78 82h122q-3 -98 -53 -157.5t-137 -59.5q-47 0 -137.5 39.5t-120.5 39.5q-76 0 -76 -79h-121z" />
<glyph unicode="&#x2000;" horiz-adv-x="870" />
<glyph unicode="&#x2001;" horiz-adv-x="1741" />
<glyph unicode="&#x2002;" horiz-adv-x="870" />
<glyph unicode="&#x2003;" horiz-adv-x="1741" />
<glyph unicode="&#x2004;" horiz-adv-x="580" />
<glyph unicode="&#x2005;" horiz-adv-x="435" />
<glyph unicode="&#x2006;" horiz-adv-x="290" />
<glyph unicode="&#x2007;" horiz-adv-x="290" />
<glyph unicode="&#x2008;" horiz-adv-x="217" />
<glyph unicode="&#x2009;" horiz-adv-x="348" />
<glyph unicode="&#x200a;" horiz-adv-x="96" />
<glyph unicode="&#x2010;" horiz-adv-x="655" d="M72 537v182h522v-182h-522z" />
<glyph unicode="&#x2011;" horiz-adv-x="655" d="M72 537v182h522v-182h-522z" />
<glyph unicode="&#x2012;" horiz-adv-x="655" d="M72 537v182h522v-182h-522z" />
<glyph unicode="&#x2013;" horiz-adv-x="1071" d="M0 500v131h1071v-131h-1071z" />
<glyph unicode="&#x2014;" horiz-adv-x="1726" d="M0 500v131h1726v-131h-1726z" />
<glyph unicode="&#x2018;" horiz-adv-x="542" d="M137 999l152 486h114l-69 -486h-197z" />
<glyph unicode="&#x2019;" horiz-adv-x="538" d="M137 999l70 486h194l-147 -486h-117z" />
<glyph unicode="&#x201a;" horiz-adv-x="538" d="M137 -266l70 485h194l-147 -485h-117z" />
<glyph unicode="&#x201c;" horiz-adv-x="864" d="M137 999l152 486h114l-69 -486h-197zM459 999l151 486h115l-70 -486h-196z" />
<glyph unicode="&#x201d;" horiz-adv-x="860" d="M137 999l70 486h194l-147 -486h-117zM459 999l69 486h195l-148 -486h-116z" />
<glyph unicode="&#x201e;" horiz-adv-x="851" d="M137 -266l70 485h194l-147 -485h-117zM451 -266l69 485h195l-148 -485h-116z" />
<glyph unicode="&#x2022;" d="M205 518q0 120 83 204.5t201 84.5q119 0 204 -84.5t85 -204.5q0 -117 -84.5 -202t-201.5 -85q-118 0 -202.5 85t-84.5 202z" />
<glyph unicode="&#x2026;" horiz-adv-x="1896" d="M205 102q0 54 37.5 92.5t89.5 38.5q54 0 92.5 -38.5t38.5 -92.5q0 -52 -38.5 -89.5t-92.5 -37.5q-52 0 -89.5 37.5t-37.5 89.5zM819 102q0 54 37.5 92.5t89.5 38.5q54 0 92.5 -38.5t38.5 -92.5q0 -52 -38.5 -89.5t-92.5 -37.5q-52 0 -89.5 37.5t-37.5 89.5zM1434 102 q0 54 37.5 92.5t89.5 38.5q54 0 92.5 -38.5t38.5 -92.5q0 -52 -38.5 -89.5t-92.5 -37.5q-53 0 -90 37.5t-37 89.5z" />
<glyph unicode="&#x202f;" horiz-adv-x="348" />
<glyph unicode="&#x2039;" horiz-adv-x="647" d="M115 545l256 397h159l-227 -397l227 -402h-159z" />
<glyph unicode="&#x203a;" horiz-adv-x="647" d="M115 143l229 400l-227 399h157l256 -399l-256 -400h-159z" />
<glyph unicode="&#x205f;" horiz-adv-x="435" />
<glyph unicode="&#x20ac;" d="M96 510l35 131h74v139h-109l35 131h86q35 226 154.5 359t279.5 133q113 0 219 -45l-32 -148q-76 41 -187 41q-80 0 -151.5 -94.5t-98.5 -245.5h334l-37 -131h-311v-139h281l-37 -131h-234q29 -164 109 -273.5t188 -109.5q65 0 154 43l39 -143q-34 -22 -93.5 -37 t-121.5 -15q-122 0 -221.5 75.5t-157.5 194.5t-78 265h-119z" />
<glyph unicode="&#x2122;" horiz-adv-x="1808" d="M98 1262v120h598v-120h-229v-691h-139v691h-230zM813 571v811h186l232 -600l225 600h180v-811h-135v607h-6l-227 -607h-84l-232 607h-4v-607h-135z" />
<glyph unicode="&#xe000;" horiz-adv-x="1013" d="M0 0v1014h1014v-1014h-1014z" />
</font>
</defs>
</svg>
